<svg xmlns="http://www.w3.org/2000/svg" viewBox="0 0 140.59 48"><defs><style>.cls-1{fill:#b30400;}.cls-2{fill:#fff;}.cls-3{fill:#ff1802;}.cls-4{fill:#ffb900;}.cls-5{fill:#ffe500;}</style></defs><g id="Capa_2" data-name="Capa 2"><g id="Layout"><path class="cls-1" d="M140.59,8H25.2a16,16,0,0,0-16,16h0a16,16,0,0,0,16,16H132A63.68,63.68,0,0,0,140.59,8Z"/><circle class="cls-2" cx="24" cy="24" r="24"/><g id="Capa_2-2" data-name="Capa 2"><g id="Capa_1-2" data-name="Capa 1-2"><path class="cls-3" d="M29.16,34.89a11,11,0,0,1-1.63-.12,11.25,11.25,0,0,1,0-22.27,11,11,0,0,1,1.63-.12A11.26,11.26,0,0,1,40.42,23.64,16.08,16.08,0,1,0,24.34,39.72,16.08,16.08,0,0,0,40.42,23.64,11.26,11.26,0,0,1,29.16,34.89Z"/><path class="cls-4" d="M29.16,12.38a11,11,0,0,0-1.63.12,11.26,11.26,0,0,1,0,22.27,11,11,0,0,0,1.63.12,11.26,11.26,0,1,0,0-22.51Z"/><path class="cls-5" d="M27.53,12.5A11.27,11.27,0,0,0,20,17.16a7.11,7.11,0,0,1,3.22-.76A7.24,7.24,0,1,1,20,30.12a11.26,11.26,0,0,0,7.57,4.65,11.26,11.26,0,0,0,0-22.27Z"/></g></g><path class="cls-2" d="M72,17.47H67V31.66H65l0-14.19h-5V15.59H72Z"/><path class="cls-2" d="M83.47,26.36H73.74a4.33,4.33,0,0,0,4.54,4.06,8.82,8.82,0,0,0,4.34-1.31l.44,1.63a10.41,10.41,0,0,1-4.91,1.36c-3.47,0-6.46-2.3-6.46-6.23a5.91,5.91,0,0,1,6-6.13c3,0,5.58,2,5.76,5.81Zm-1.9-1.5a3.8,3.8,0,0,0-3.81-3.46,4,4,0,0,0-4,3.46Z"/><path class="cls-2" d="M85.64,29a7.18,7.18,0,0,0,4.21,1.44c1.6,0,2.66-.75,2.66-1.79s-1.06-1.54-2.69-2.16l-.5-.16c-1.75-.62-3.56-1.44-3.59-3.37s2-3.15,4.6-3.15a9.23,9.23,0,0,1,3.83.81l-.59,1.6a7.14,7.14,0,0,0-3.31-.82c-1.36,0-2.55.43-2.55,1.47s.92,1.35,2.64,2l.44.14c1.81.64,3.74,1.58,3.72,3.63s-2,3.47-4.62,3.47a9.09,9.09,0,0,1-4.84-1.47Z"/><path class="cls-2" d="M96.27,25.92a6.14,6.14,0,1,1,6.13,6.18A6.09,6.09,0,0,1,96.27,25.92Zm10.22,0a4.1,4.1,0,1,0-8.15,0c0,2.55,1.68,4.5,4,4.5A4.22,4.22,0,0,0,106.49,25.92Z"/><path class="cls-2" d="M110.59,29a7.18,7.18,0,0,0,4.21,1.44c1.6,0,2.66-.75,2.66-1.79s-1.06-1.54-2.69-2.16l-.5-.16c-1.75-.62-3.56-1.44-3.58-3.37s2-3.15,4.59-3.15a9.23,9.23,0,0,1,3.83.81l-.59,1.6a7.14,7.14,0,0,0-3.31-.82c-1.36,0-2.55.43-2.55,1.47s.92,1.35,2.64,2l.44.14c1.81.64,3.74,1.58,3.72,3.63s-2,3.47-4.62,3.47A9.09,9.09,0,0,1,110,30.61Z"/></g></g></svg>