<?xml version="1.0" encoding="utf-8"?>
<!-- Generator: Adobe Illustrator 27.0.1, SVG Export Plug-In . SVG Version: 6.00 Build 0)  -->
<svg version="1.1" id="Capa_1" xmlns="http://www.w3.org/2000/svg" xmlns:xlink="http://www.w3.org/1999/xlink" x="0px" y="0px"
	 viewBox="0 0 1228.64 326.48" style="enable-background:new 0 0 1228.64 326.48;" xml:space="preserve">
<style type="text/css">
	.st0{fill:#0767A5;}
	.st1{fill:#0767A9;}
	.st2{fill:#E21E30;}
</style>
<g>
	<g>
		<g>
			<path class="st0" d="M488.93,130.53c-3.23,1.07-7.39,1.6-12.39,1.6c-4.07,0-7.84-0.69-11.21-2.05c-3.36-1.35-6.3-3.3-8.74-5.8
				c-2.43-2.51-4.36-5.59-5.71-9.16c-1.36-3.58-2.06-7.71-2.06-12.28c0-4.02,0.58-7.84,1.71-11.35c1.12-3.46,2.84-6.48,5.1-8.97
				c2.25-2.49,5.13-4.49,8.56-5.94c3.44-1.45,7.53-2.19,12.13-2.19c4.53,0,8.42,0.46,11.56,1.36c3.18,0.92,5.88,1.92,8.04,3
				l2.03,1.02V68.5l-0.85-0.37c-2.17-0.93-4.9-1.82-8.12-2.64c-3.29-0.83-7.44-1.25-12.34-1.25c-6.01,0-11.49,0.95-16.28,2.82
				c-4.81,1.88-8.95,4.57-12.29,7.97c-3.33,3.41-5.91,7.56-7.65,12.34c-1.72,4.76-2.6,10.1-2.6,15.88c0,5.94,0.95,11.4,2.82,16.22
				c1.87,4.84,4.53,9,7.91,12.38s7.44,6.01,12.06,7.81c4.62,1.8,9.69,2.71,15.08,2.71c5.96,0,10.78-0.53,14.33-1.58
				c3.5-1.04,6.42-2.19,8.66-3.42l0.73-0.4V125.8l-2.09,1.17C495.05,128.25,492.23,129.45,488.93,130.53z"/>
			<rect x="509.99" y="64.25" class="st0" width="9.94" height="76.89"/>
			<path class="st0" d="M565.09,131.5c-1.15,0.26-2.6,0.54-4.32,0.82c-5.01,0.82-10.77,0.74-14.12-0.32
				c-1.76-0.56-3.15-1.35-4.13-2.36c-0.99-1.01-1.64-2.21-2-3.66c-0.39-1.57-0.59-3.35-0.59-5.32V88.45H529.9v33.57
				c0,2.93,0.37,5.65,1.1,8.1c0.77,2.56,2.11,4.79,3.98,6.62c1.87,1.83,4.33,3.24,7.31,4.21c2.92,0.95,6.6,1.43,10.91,1.43
				c4.04,0,7.89-0.32,11.45-0.96c3.51-0.63,6.65-1.31,9.33-2.01l1.05-0.28V88.45h-9.94V131.5z"/>
			<path class="st0" d="M628.33,95.01c-2.14-2.44-4.79-4.39-7.86-5.8c-3.08-1.4-6.57-2.12-10.38-2.12c-3.91,0-7.24,0.47-9.89,1.39
				c-1.68,0.58-3.23,1.23-4.63,1.93V64.25h-9.94v74.41l0.84,0.37c5.39,2.37,11.92,3.58,19.42,3.58c4.34,0,8.36-0.68,11.92-2.03
				c3.6-1.36,6.69-3.32,9.2-5.82c2.49-2.5,4.45-5.55,5.81-9.08c1.35-3.5,2.03-7.47,2.03-11.82c0-3.64-0.55-7.11-1.65-10.3
				C632.11,100.31,630.46,97.44,628.33,95.01z M624.49,114.06c0,5.88-1.61,10.56-4.8,13.91c-3.16,3.32-7.88,5.01-14.01,5.01
				c-1.94,0-3.95-0.15-5.97-0.46c-1.58-0.24-2.97-0.55-4.15-0.92v-31.21c1.52-0.89,3.33-1.69,5.38-2.39
				c4.54-1.53,10.6-1.66,14.63,0.16c1.97,0.89,3.62,2.1,4.91,3.61c1.31,1.53,2.31,3.36,2.98,5.44
				C624.15,109.33,624.49,111.63,624.49,114.06z"/>
			<path class="st0" d="M694.06,88.95c-1.12-0.35-2.34-0.7-3.64-1.03c-2.16-0.55-4.8-0.83-7.83-0.83c-4.29,0-8.19,0.71-11.59,2.1
				c-3.41,1.39-6.36,3.37-8.77,5.88c-2.39,2.51-4.25,5.58-5.54,9.14c-1.27,3.52-1.92,7.43-1.92,11.64c0,3.84,0.61,7.44,1.82,10.7
				c1.21,3.27,3.01,6.14,5.35,8.51c2.33,2.36,5.22,4.24,8.61,5.56c3.36,1.31,7.27,1.98,11.61,1.98c4.73,0,8.88-0.51,12.34-1.52
				c3.43-1,6.4-2.12,8.83-3.34l0.78-0.39v-73.1h-10.05V88.95z M682.69,132.87c-3.16,0-5.87-0.46-8.06-1.36
				c-2.16-0.89-3.96-2.14-5.35-3.71c-1.4-1.58-2.45-3.44-3.12-5.53c-0.68-2.12-1.03-4.46-1.03-6.95c0-5.81,1.61-10.42,4.79-13.69
				c3.16-3.26,7.6-4.91,13.18-4.91c2.52,0,4.77,0.27,6.7,0.79c1.59,0.43,3.01,0.87,4.25,1.3v32.19c-1.34,0.46-2.9,0.87-4.63,1.22
				C687.29,132.65,685.02,132.87,682.69,132.87z"/>
			<path class="st0" d="M761.23,102.95c-0.85-3.07-2.21-5.81-4.07-8.15c-1.87-2.36-4.3-4.24-7.22-5.59
				c-2.9-1.34-6.42-2.02-10.45-2.02c-3.87,0-7.45,0.67-10.64,1.99c-3.22,1.33-6.01,3.26-8.3,5.74c-2.29,2.48-4.08,5.5-5.31,8.97
				c-1.24,3.44-1.87,7.39-1.87,11.74c0,4.21,0.61,8.01,1.81,11.32c1.23,3.36,3.01,6.23,5.31,8.53c2.29,2.29,5.06,4.07,8.25,5.3
				c3.15,1.21,6.74,1.82,10.67,1.82c4.3,0,8.04-0.48,11.11-1.42c2.99-0.93,5.64-1.98,7.88-3.13l0.76-0.39v-10.2l-2.15,1.34
				c-1.59,0.99-3.84,2-6.7,3.01c-2.8,0.99-6.01,1.49-9.53,1.49c-3.01,0-5.64-0.46-7.79-1.36c-2.14-0.89-3.91-2.1-5.27-3.58
				c-1.36-1.49-2.39-3.24-3.05-5.22c-0.54-1.59-0.87-3.29-0.98-5.05h38.44l0.16-1.22c0.08-0.59,0.13-1.27,0.17-2.06
				c0.03-0.75,0.05-1.49,0.05-2.21C762.5,109.2,762.07,105.95,761.23,102.95z M752.31,109.61h-28.39c0.63-3.94,2.17-7.13,4.58-9.48
				c2.72-2.66,6.15-3.95,10.49-3.95c2.3,0,4.33,0.38,6.03,1.14c1.68,0.75,3.05,1.77,4.09,3.06c1.06,1.31,1.87,2.88,2.42,4.66
				C751.94,106.46,752.21,107.99,752.31,109.61z"/>
		</g>
		<g>
			<path class="st0" d="M510.67,180.1H465.7v18.8h40.93v20.53H465.7v20.1h47v20.53h-69.27v-100.5h67.24V180.1z"/>
			<path class="st0" d="M522.68,241.41c1.16,0.39,2.55,0.82,4.2,1.3c1.64,0.48,3.44,0.92,5.42,1.3c1.97,0.39,4.07,0.7,6.29,0.94
				c2.21,0.24,4.43,0.36,6.65,0.36c4.24,0,7.23-0.46,8.97-1.37c1.73-0.92,2.6-2.19,2.6-3.83c0-1.83-0.87-3.13-2.6-3.91
				c-1.74-0.77-4.63-1.78-8.68-3.04c-3.76-1.16-7.11-2.36-10.05-3.62c-2.94-1.25-5.47-2.75-7.59-4.48
				c-2.12-1.74-3.74-3.78-4.84-6.15c-1.11-2.36-1.66-5.23-1.66-8.6s0.62-6.48,1.88-9.33c1.25-2.84,3.16-5.3,5.71-7.37
				c2.55-2.07,5.71-3.69,9.47-4.84c3.76-1.16,8.15-1.73,13.16-1.73c4.92,0,9.13,0.24,12.65,0.72c3.52,0.48,6.53,0.96,9.04,1.45
				v18.08c-2.99-0.77-6.25-1.49-9.76-2.17c-3.52-0.67-7.35-1.01-11.5-1.01c-6.56,0-9.83,1.73-9.83,5.21c0,1.93,0.89,3.28,2.67,4.05
				c1.78,0.77,4.27,1.54,7.45,2.31c3.86,1.06,7.35,2.12,10.49,3.18c3.13,1.06,5.78,2.44,7.95,4.12c2.17,1.69,3.85,3.74,5.06,6.15
				c1.2,2.41,1.81,5.49,1.81,9.25c0,3.18-0.53,6.2-1.59,9.04c-1.06,2.84-2.75,5.35-5.06,7.52c-2.32,2.17-5.38,3.88-9.18,5.13
				c-3.81,1.25-8.46,1.88-13.96,1.88c-5.59,0-10.53-0.31-14.82-0.94c-4.29-0.63-7.74-1.32-10.34-2.1V241.41z"/>
			<path class="st0" d="M586.59,195.14c4.15-1.83,9.06-3.52,14.75-5.06c5.69-1.54,12.15-2.31,19.38-2.31
				c6.46,0,11.98,1.06,16.56,3.18c4.58,2.12,8.34,4.87,11.28,8.24c2.94,3.38,5.08,7.18,6.43,11.42c1.35,4.24,2.02,8.53,2.02,12.87
				c0,6.27-0.94,11.81-2.82,16.63c-1.88,4.82-4.41,8.85-7.59,12.07c-3.18,3.23-6.89,5.69-11.13,7.38
				c-4.25,1.68-8.73,2.53-13.45,2.53c-3.09,0-5.84-0.24-8.24-0.72c-2.41-0.48-4.43-1.01-6.07-1.59v34.27h-21.11V195.14z
				 M618.99,207.86c-2.22,0-4.32,0.17-6.29,0.51c-1.97,0.34-3.64,0.75-4.99,1.23v31.53c1.16,0.48,2.6,0.89,4.34,1.23
				c1.74,0.34,3.95,0.51,6.65,0.51c5.21,0,9.3-1.49,12.29-4.48c2.99-2.99,4.48-7.47,4.48-13.45c0-5.5-1.54-9.71-4.63-12.65
				C627.76,209.34,623.81,207.86,618.99,207.86z"/>
			<path class="st0" d="M730.34,256.31c-3.18,1.35-6.87,2.65-11.06,3.9c-4.19,1.25-9.71,1.88-16.56,1.88
				c-11.86,0-21.09-3.16-27.69-9.47c-6.6-6.31-9.91-15.45-9.91-27.4c0-5.78,0.87-10.99,2.6-15.62c1.74-4.63,4.22-8.55,7.45-11.79
				c3.23-3.23,7.13-5.69,11.71-7.37c4.58-1.69,9.71-2.53,15.4-2.53c5.79,0,10.78,0.92,14.97,2.75c4.2,1.83,7.64,4.29,10.34,7.37
				c2.7,3.09,4.68,6.7,5.93,10.85c1.25,4.15,1.88,8.53,1.88,13.16c0,2.02-0.05,3.76-0.14,5.21c-0.1,1.45-0.2,2.65-0.29,3.62h-48.44
				c0.1,1.64,0.48,3.28,1.16,4.92c0.67,1.64,1.78,3.11,3.32,4.41c1.54,1.3,3.57,2.34,6.07,3.11c2.51,0.77,5.69,1.16,9.54,1.16
				c5.4,0,10.1-0.65,14.1-1.95c4-1.3,7.25-2.48,9.76-3.54L730.34,256.31z M700.98,204.1c-4.05,0-7.37,1.18-9.98,3.54
				c-2.6,2.36-4.05,5.71-4.34,10.05h27.77c0-4.05-1.16-7.33-3.47-9.83C708.65,205.36,705.32,204.1,700.98,204.1z"/>
			<path class="st0" d="M801.25,258.48c-1.93,0.87-4.58,1.68-7.95,2.46c-3.37,0.77-7.08,1.16-11.13,1.16
				c-5.78,0-11.06-0.85-15.84-2.53c-4.77-1.69-8.87-4.15-12.29-7.38c-3.42-3.23-6.05-7.18-7.88-11.86
				c-1.83-4.68-2.75-9.95-2.75-15.84c0-5.01,0.87-9.76,2.6-14.24c1.74-4.48,4.27-8.39,7.59-11.71c3.33-3.33,7.45-5.95,12.37-7.88
				c4.91-1.93,10.5-2.89,16.77-2.89c3.66,0,6.99,0.24,9.98,0.72c2.99,0.48,5.49,1.06,7.52,1.73v19.38
				c-1.93-0.77-4.34-1.45-7.23-2.02c-2.89-0.58-5.79-0.87-8.68-0.87c-6.85,0-11.79,1.64-14.82,4.92c-3.04,3.28-4.55,7.66-4.55,13.16
				c0,5.3,1.66,9.64,4.99,13.02c3.33,3.38,8.41,5.06,15.26,5.06c2.99,0,5.88-0.34,8.68-1.01c2.79-0.67,5.25-1.45,7.37-2.31V258.48z"
				/>
			<path class="st0" d="M812.09,152.91h21.98v21.98h-21.98V152.91z M812.53,189.64h21.11v70.43h-21.11V189.64z"/>
			<path class="st0" d="M905.08,257.03c-3.28,1.06-7.54,2.12-12.8,3.18c-5.26,1.06-11.4,1.59-18.44,1.59
				c-5.69,0-10.44-0.56-14.24-1.66c-3.81-1.11-6.87-2.68-9.18-4.7s-3.98-4.41-4.99-7.16c-1.01-2.75-1.52-5.71-1.52-8.89
				c0-7.04,2.51-12.53,7.52-16.48c5.01-3.95,12.92-5.93,23.72-5.93c1.06,0,2.53,0.02,4.41,0.07c1.88,0.05,3.35,0.12,4.41,0.22v-2.75
				c0-1.83-0.39-3.33-1.16-4.48c-0.77-1.16-1.79-2.05-3.04-2.68c-1.26-0.62-2.68-1.06-4.27-1.3c-1.59-0.24-3.21-0.36-4.85-0.36
				c-4.05,0-8.1,0.46-12.15,1.37c-4.05,0.92-7.18,1.76-9.4,2.53v-17.35c1.16-0.38,2.63-0.84,4.41-1.37
				c1.78-0.53,3.83-1.01,6.15-1.45c2.31-0.43,4.79-0.82,7.45-1.16c2.65-0.34,5.37-0.51,8.17-0.51c5.4,0,9.98,0.63,13.74,1.88
				c3.76,1.25,6.85,3.09,9.26,5.49c2.41,2.41,4.15,5.35,5.21,8.82c1.06,3.47,1.59,7.42,1.59,11.86V257.03z M883.97,230.86
				c-0.58-0.09-1.66-0.19-3.25-0.29c-1.59-0.09-3.35-0.14-5.28-0.14c-7.23,0-10.85,2.6-10.85,7.81c0,2.22,0.75,3.98,2.24,5.28
				c1.49,1.3,4.17,1.95,8.03,1.95c1.93,0,3.66-0.05,5.21-0.14c1.54-0.1,2.84-0.24,3.9-0.43V230.86z"/>
			<path class="st0" d="M918.23,153.34h21.11v106.72h-21.11V153.34z"/>
			<path class="st0" d="M952.29,152.91h21.98v21.98h-21.98V152.91z M952.72,189.64h21.11v70.43h-21.11V189.64z"/>
			<path class="st0" d="M985.85,241.41c1.16,0.39,2.55,0.82,4.2,1.3c1.64,0.48,3.44,0.92,5.42,1.3c1.97,0.39,4.07,0.7,6.29,0.94
				c2.21,0.24,4.43,0.36,6.65,0.36c4.24,0,7.23-0.46,8.97-1.37c1.73-0.92,2.6-2.19,2.6-3.83c0-1.83-0.87-3.13-2.6-3.91
				c-1.74-0.77-4.63-1.78-8.68-3.04c-3.76-1.16-7.11-2.36-10.05-3.62c-2.94-1.25-5.47-2.75-7.59-4.48
				c-2.12-1.74-3.74-3.78-4.84-6.15c-1.11-2.36-1.66-5.23-1.66-8.6s0.62-6.48,1.88-9.33c1.25-2.84,3.16-5.3,5.71-7.37
				c2.55-2.07,5.71-3.69,9.47-4.84c3.76-1.16,8.15-1.73,13.16-1.73c4.92,0,9.13,0.24,12.65,0.72c3.52,0.48,6.53,0.96,9.04,1.45
				v18.08c-2.99-0.77-6.25-1.49-9.76-2.17c-3.52-0.67-7.35-1.01-11.5-1.01c-6.56,0-9.83,1.73-9.83,5.21c0,1.93,0.89,3.28,2.67,4.05
				c1.78,0.77,4.27,1.54,7.45,2.31c3.86,1.06,7.35,2.12,10.49,3.18c3.13,1.06,5.78,2.44,7.95,4.12c2.17,1.69,3.85,3.74,5.06,6.15
				c1.2,2.41,1.81,5.49,1.81,9.25c0,3.18-0.53,6.2-1.59,9.04c-1.06,2.84-2.75,5.35-5.06,7.52c-2.32,2.17-5.38,3.88-9.18,5.13
				c-3.81,1.25-8.46,1.88-13.96,1.88c-5.59,0-10.53-0.31-14.82-0.94c-4.29-0.63-7.74-1.32-10.34-2.1V241.41z"/>
			<path class="st0" d="M1045.99,189.64h9.4v-19.52h21.12v19.52h18.65v17.5h-18.65v26.46c0,3.76,0.81,6.32,2.46,7.66
				c1.64,1.35,4.15,2.02,7.52,2.02c1.73,0,3.4-0.12,4.99-0.36c1.59-0.24,2.91-0.51,3.97-0.8v17.06c-1.64,0.39-3.86,0.82-6.65,1.3
				c-2.8,0.48-5.93,0.72-9.4,0.72c-4.34,0-8.05-0.6-11.13-1.81c-3.09-1.2-5.57-2.91-7.45-5.13c-1.88-2.22-3.25-4.92-4.12-8.1
				c-0.87-3.18-1.3-6.75-1.3-10.7v-28.34h-9.4V189.64z"/>
			<path class="st0" d="M1163.42,257.03c-3.28,1.06-7.54,2.12-12.8,3.18c-5.26,1.06-11.4,1.59-18.44,1.59
				c-5.69,0-10.44-0.56-14.24-1.66c-3.81-1.11-6.87-2.68-9.18-4.7s-3.98-4.41-4.99-7.16c-1.01-2.75-1.52-5.71-1.52-8.89
				c0-7.04,2.51-12.53,7.52-16.48c5.01-3.95,12.92-5.93,23.72-5.93c1.06,0,2.53,0.02,4.41,0.07c1.88,0.05,3.35,0.12,4.41,0.22v-2.75
				c0-1.83-0.39-3.33-1.16-4.48c-0.77-1.16-1.79-2.05-3.04-2.68c-1.26-0.62-2.68-1.06-4.27-1.3c-1.59-0.24-3.21-0.36-4.85-0.36
				c-4.05,0-8.1,0.46-12.15,1.37c-4.05,0.92-7.18,1.76-9.4,2.53v-17.35c1.16-0.38,2.63-0.84,4.41-1.37
				c1.78-0.53,3.83-1.01,6.15-1.45c2.31-0.43,4.79-0.82,7.45-1.16c2.65-0.34,5.37-0.51,8.17-0.51c5.4,0,9.98,0.63,13.74,1.88
				c3.76,1.25,6.85,3.09,9.26,5.49c2.41,2.41,4.15,5.35,5.21,8.82c1.06,3.47,1.59,7.42,1.59,11.86V257.03z M1142.3,230.86
				c-0.58-0.09-1.66-0.19-3.25-0.29c-1.59-0.09-3.35-0.14-5.28-0.14c-7.23,0-10.85,2.6-10.85,7.81c0,2.22,0.75,3.98,2.24,5.28
				c1.49,1.3,4.17,1.95,8.03,1.95c1.93,0,3.66-0.05,5.21-0.14c1.54-0.1,2.84-0.24,3.9-0.43V230.86z"/>
			<path class="st1" d="M1173.68,241.41c1.16,0.39,2.55,0.82,4.2,1.3c1.64,0.48,3.44,0.92,5.42,1.3c1.97,0.39,4.07,0.7,6.29,0.94
				c2.21,0.24,4.43,0.36,6.65,0.36c4.24,0,7.23-0.46,8.97-1.37c1.73-0.92,2.6-2.19,2.6-3.83c0-1.83-0.87-3.13-2.6-3.91
				c-1.74-0.77-4.63-1.78-8.68-3.04c-3.76-1.16-7.11-2.36-10.05-3.62c-2.94-1.25-5.47-2.75-7.59-4.48
				c-2.12-1.74-3.74-3.78-4.84-6.15c-1.11-2.36-1.66-5.23-1.66-8.6s0.62-6.48,1.88-9.33c1.25-2.84,3.16-5.3,5.71-7.37
				c2.55-2.07,5.71-3.69,9.47-4.84c3.76-1.16,8.15-1.73,13.16-1.73c4.92,0,9.13,0.24,12.65,0.72c3.52,0.48,6.53,0.96,9.04,1.45
				v18.08c-2.99-0.77-6.25-1.49-9.76-2.17c-3.52-0.67-7.35-1.01-11.5-1.01c-6.56,0-9.83,1.73-9.83,5.21c0,1.93,0.89,3.28,2.67,4.05
				c1.78,0.77,4.27,1.54,7.45,2.31c3.86,1.06,7.35,2.12,10.49,3.18c3.13,1.06,5.78,2.44,7.95,4.12c2.17,1.69,3.85,3.74,5.06,6.15
				c1.2,2.41,1.81,5.49,1.81,9.25c0,3.18-0.53,6.2-1.59,9.04c-1.06,2.84-2.75,5.35-5.06,7.52c-2.32,2.17-5.38,3.88-9.18,5.13
				c-3.81,1.25-8.46,1.88-13.96,1.88c-5.59,0-10.53-0.31-14.82-0.94c-4.29-0.63-7.74-1.32-10.34-2.1V241.41z"/>
		</g>
	</g>
	<g>
		<g>
			<path class="st2" d="M367.54,76.32C367.54,34.17,333.37,0,291.21,0c-21.07,0-40.15,8.54-53.96,22.35l-88.26,88.26L129.79,91.4
				c-13.77-13.52-32.64-21.87-53.47-21.87C34.17,69.53,0,103.7,0,145.85c0,21.61,9,41.11,23.44,54.99l125.57,125.63l196.17-196.18
				C359,116.48,367.54,97.4,367.54,76.32z"/>
		</g>
	</g>
</g>
</svg>
