<?xml version="1.0" encoding="utf-8"?>
<!-- Generator: Adobe Illustrator 27.0.1, SVG Export Plug-In . SVG Version: 6.00 Build 0)  -->
<svg version="1.1" id="Capa_1" xmlns="http://www.w3.org/2000/svg" xmlns:xlink="http://www.w3.org/1999/xlink" x="0px" y="0px"
	 viewBox="0 0 720.73 203.45" style="enable-background:new 0 0 720.73 203.45;" xml:space="preserve">
<style type="text/css">
	.st0{fill:#E21E30;}
	.st1{fill:#0767A5;}
</style>
<g>
	<path class="st0" d="M293.84,161.67c19.55,0,35.38-15.85,35.38-35.4c0-19.55-15.83-35.4-35.38-35.4
		c-19.54,0-35.38,15.85-35.38,35.4C258.45,145.82,274.3,161.67,293.84,161.67 M216.72,126.22c0-42.64,34.56-77.2,77.2-77.2
		c42.63,0,77.2,34.56,77.2,77.2c0,42.64-34.57,77.22-77.2,77.22C251.28,203.45,216.72,168.86,216.72,126.22"/>
	<path class="st1" d="M560.73,199.15h41.5V53.29h-41.5V199.15z M469.86,49.92c-15.15,0-28.34,4.76-39.83,14.58V0h-41.52v199.15
		h41.52v-12.91c10.65,11.78,24.12,16.27,39.83,16.27c41.78,0,73.48-35.06,73.48-76.01C543.35,85.56,511.92,49.92,469.86,49.92
		 M465.87,161.66c-19.53,0-35.38-15.84-35.38-35.4c0-19.53,15.85-35.38,35.38-35.38c19.54,0,35.4,15.85,35.4,35.38
		C501.27,145.82,485.41,161.66,465.87,161.66 M101.53,122.3h-0.56L64.51,0H0v199.15h41.5V58.34h0.57l39.27,140.81h38.14L159.3,58.34
		h0.57v140.81h41.5V0h-62.83L101.53,122.3z M560.73,39.27h41.5V0.01h-41.5V39.27z M682.94,3.52h6.03v16.4h4.15V3.52h6.02V0h-16.2
		V3.52z M714.7,0l-3.55,15.7h-0.05L707.49,0h-6.07v19.92h3.89V3.28h0.05l3.64,16.64h4.08l3.71-16.64h0.05v16.64h3.9V0H714.7z
		 M625.23,199.15h41.5V0h-41.5V199.15z"/>
</g>
</svg>
